<svg xmlns="http://www.w3.org/2000/svg" id="at" width="25" height="25" viewBox="0 0 25 25">
    <g id="Grupo_262" data-name="Grupo 262">
        <path id="Trazado_227" fill="#d81159" d="M11.071.08a12.5 12.5 0 0 0 2.4 24.883 12.872 12.872 0 0 0 7.751-3.5l.183-.171a.521.521 0 0 0 .026-.736l-.711-.762a.521.521 0 0 0-.736-.026l-.381.355a10.417 10.417 0 1 1-6.794-18.035 10.6 10.6 0 0 1 10.107 10.691v.763a2.086 2.086 0 0 1-2.291 2.073 2.146 2.146 0 0 1-1.875-2.165v-4.6a.521.521 0 0 0-.521-.521h-1.042a.518.518 0 0 0-.47.3 5.725 5.725 0 1 0 .554 7.028 4.149 4.149 0 0 0 3.848 2.043A4.265 4.265 0 0 0 25 13.395V12.5A12.515 12.515 0 0 0 11.071.08zM12.5 16.146a3.646 3.646 0 1 1 3.646-3.646 3.65 3.65 0 0 1-3.646 3.646z" data-name="Trazado 227"/>
    </g>
</svg>
