<svg xmlns="http://www.w3.org/2000/svg" width="19.939" height="19.94" viewBox="0 0 19.939 19.94">
    <path fill="#fff" d="M14.331 19.94a5.555 5.555 0 0 1-1.906-.341 20.323 20.323 0 0 1-7.38-4.7 20.322 20.322 0 0 1-4.7-7.38A5.515 5.515 0 0 1 .06 4.8 5.656 5.656 0 0 1 2.966.664 5.552 5.552 0 0 1 5.625 0a.623.623 0 0 1 .609.493l.978 4.564a.623.623 0 0 1-.169.571L5.372 7.3a16.4 16.4 0 0 0 7.269 7.269l1.671-1.669a.623.623 0 0 1 .571-.169l4.564.978a.623.623 0 0 1 .493.609 5.552 5.552 0 0 1-.664 2.658 5.656 5.656 0 0 1-4.14 2.907 5.542 5.542 0 0 1-.8.059zM5.127 1.273A4.366 4.366 0 0 0 1.512 7.09 18.9 18.9 0 0 0 12.85 18.428a4.366 4.366 0 0 0 5.816-3.615l-3.713-.8-1.745 1.745a.623.623 0 0 1-.706.123 17.643 17.643 0 0 1-8.448-8.444.623.623 0 0 1 .123-.706l1.745-1.745z"/>
</svg>
