<svg xmlns="http://www.w3.org/2000/svg" width="11.076" height="19.514" viewBox="0 0 11.076 19.514">
    <path fill="#d81159" d="M7.341 19.513H4.216a.948.948 0 0 1-.947-.947v-7.048H1.447a.948.948 0 0 1-.947-.946V7.551a.948.948 0 0 1 .947-.951H3.27V5.092A5.15 5.15 0 0 1 4.631 1.4 4.9 4.9 0 0 1 8.248 0h2.383a.948.948 0 0 1 .945.947v2.8a.947.947 0 0 1-.946.947h-1.6c-.489 0-.614.1-.641.128-.044.05-.1.191-.1.58V6.6h2.221a.962.962 0 0 1 .468.119.95.95 0 0 1 .487.828v3.02a.948.948 0 0 1-.947.946h-2.23v7.049a.948.948 0 0 1-.947.947zm-2.927-1.144h2.73v-7.363a.633.633 0 0 1 .632-.632h2.543V7.749H7.776a.633.633 0 0 1-.632-.632V5.41a1.948 1.948 0 0 1 .383-1.337 1.939 1.939 0 0 1 1.5-.515h1.407V1.147H8.249a3.611 3.611 0 0 0-3.835 3.945v2.025a.633.633 0 0 1-.632.632H1.644v2.625h2.138a.633.633 0 0 1 .632.632zm6.215-17.222zm0 0" transform="translate(-.5)"/>
</svg>
