<svg xmlns="http://www.w3.org/2000/svg" width="21.405" height="15.299" viewBox="0 0 21.405 15.299">
    <g>
        <path fill="#d81159" d="M21.4 78.209a.627.627 0 0 0-.48-.532l-2.145-.5a5.472 5.472 0 0 0-1.256-2.7 4.744 4.744 0 0 0-3.683-1.454 3.86 3.86 0 0 0-3.263 1.391 5.37 5.37 0 0 0-.772 3.8C7.99 77.684 5.1 76.538 4.541 75a.627.627 0 0 0-1.165-.034 7.01 7.01 0 0 0 .041 5.711c.114.261.235.5.358.725l-2.961-.925a.627.627 0 0 0-.814.665 8.8 8.8 0 0 0 1.386 3.592c1.094 1.638 3.26 3.59 7.37 3.59a10.084 10.084 0 0 0 5.6-1.586 10.613 10.613 0 0 0 3.117-3.177A9.062 9.062 0 0 0 18.831 80l2.235-1.161a.627.627 0 0 0 .334-.63zm-3.437.834a.627.627 0 0 0-.334.489 7.757 7.757 0 0 1-1.207 3.35 8.776 8.776 0 0 1-7.661 4.19 7.106 7.106 0 0 1-6.3-2.992A7.762 7.762 0 0 1 1.476 82l3.7 1.157a.627.627 0 0 0 .633-1.039 6.6 6.6 0 0 1-1.658-5.458 9.368 9.368 0 0 0 3.232 2.03 20.708 20.708 0 0 0 3.071 1 .628.628 0 0 0 .743-.776c-.006-.024-.637-2.416.375-3.737a2.652 2.652 0 0 1 2.264-.895c2.167 0 3.393 1.1 3.749 3.375l.017.117v.006a.627.627 0 0 0 .479.525l.9.21z" transform="translate(0 -73.026)"/>
    </g>
</svg>
