<svg xmlns="http://www.w3.org/2000/svg" width="17.339" height="17.423" viewBox="0 0 17.339 17.423">
    <path fill="#d81159" fill-rule="evenodd" d="M15.063 2.532A8.635 8.635 0 0 0 1.475 12.949L.25 17.423l4.577-1.2a8.624 8.624 0 0 0 4.126 1.051 8.637 8.637 0 0 0 6.11-14.742zM8.956 15.815a7.167 7.167 0 0 1-3.652-1l-.262-.156-2.716.712.725-2.648-.171-.271a7.176 7.176 0 1 1 6.079 3.363zm3.936-5.374c-.216-.108-1.276-.63-1.474-.7s-.342-.108-.485.108-.557.7-.683.846-.252.162-.467.054a5.892 5.892 0 0 1-1.736-1.073 6.507 6.507 0 0 1-1.2-1.494c-.126-.216 0-.322.095-.44A6.1 6.1 0 0 0 7.481 7a.4.4 0 0 0-.018-.378c-.054-.108-.485-1.17-.665-1.6s-.353-.364-.485-.37-.27-.008-.413-.008a.792.792 0 0 0-.575.27 2.419 2.419 0 0 0-.755 1.8 4.2 4.2 0 0 0 .88 2.233A9.616 9.616 0 0 0 9.135 12.2a12.347 12.347 0 0 0 1.23.454 2.957 2.957 0 0 0 1.359.085 2.222 2.222 0 0 0 1.456-1.026 1.8 1.8 0 0 0 .126-1.026c-.054-.09-.2-.144-.413-.252zm0 0" transform="translate(-.25)"/>
</svg>
