<svg xmlns="http://www.w3.org/2000/svg" width="20.925" height="15.848" viewBox="0 0 20.925 15.848">
    <defs>
        <style>
            .cls-1{fill:#d81159}
        </style>
    </defs>
    <g id="youtube" transform="translate(.001)">
        <path id="Trazado_278" d="M196.825 109.158l-4.623-2.529a.849.849 0 0 0-1.257.745v5.015a.848.848 0 0 0 1.251.748l4.623-2.486a.849.849 0 0 0 .005-1.493zm-4.653 2.6v-3.748l3.455 1.89zm0 0" class="cls-1" data-name="Trazado 278" transform="translate(-183.143 -102.17)"/>
        <path id="Trazado_279" d="M20.77 3.74v-.01a4.785 4.785 0 0 0-.924-2.43A3.4 3.4 0 0 0 17.591.245l-.1-.012h-.037C14.684.028 10.507 0 10.465 0h-.007c-.042 0-4.219.028-7.011.229H3.41l-.1.012a3.319 3.319 0 0 0-2.24 1.094 5.015 5.015 0 0 0-.915 2.384v.021C.147 3.811 0 5.479 0 7.154V8.72c0 1.675.148 3.343.154 3.414v.011a4.738 4.738 0 0 0 .919 2.4 3.475 3.475 0 0 0 2.327 1.04c.085.01.158.018.208.027l.048.007c1.6.152 6.6.227 6.817.23h.013c.042 0 4.219-.028 6.986-.229h.037l.117-.013a3.242 3.242 0 0 0 2.223-1.063 5.014 5.014 0 0 0 .915-2.385v-.021c.006-.07.154-1.738.154-3.413V7.154c0-1.675-.148-3.343-.154-3.413zM19.7 8.72c0 1.55-.135 3.147-.148 3.293a3.893 3.893 0 0 1-.6 1.7 2.017 2.017 0 0 1-1.447.671l-.131.015c-2.676.193-6.7.223-6.881.224-.208 0-5.142-.079-6.691-.222-.079-.013-.165-.023-.255-.033a2.293 2.293 0 0 1-1.568-.655l-.015-.013a3.532 3.532 0 0 1-.59-1.682c-.01-.111-.149-1.726-.149-3.3V7.154c0-1.549.135-3.143.148-3.293a3.814 3.814 0 0 1 .6-1.7 2.116 2.116 0 0 1 1.478-.7l.1-.012c2.715-.194 6.763-.223 6.909-.224s4.193.03 6.883.224l.108.013a2.2 2.2 0 0 1 1.5.68v.005a3.589 3.589 0 0 1 .59 1.706c.009.1.149 1.723.149 3.3zm0 0" class="cls-1" data-name="Trazado 279"/>
    </g>
</svg>
