<svg xmlns="http://www.w3.org/2000/svg" id="calendar_2_" width="24.739" height="24.739" data-name="calendar (2)" viewBox="0 0 24.739 24.739">
    <path id="Trazado_286" fill="#d81159" d="M21.55 1.933h-2.222V.773a.773.773 0 0 0-1.546 0v1.16H6.958V.773a.773.773 0 0 0-1.546 0v1.16H3.189A3.193 3.193 0 0 0 0 5.122V21.55a3.193 3.193 0 0 0 3.189 3.189H21.55a3.193 3.193 0 0 0 3.189-3.189V5.122a3.193 3.193 0 0 0-3.189-3.189zM3.189 3.479h2.223v.773a.773.773 0 0 0 1.546 0v-.773h10.823v.773a.773.773 0 0 0 1.546 0v-.773h2.223a1.645 1.645 0 0 1 1.643 1.643v1.836H1.546V5.122a1.645 1.645 0 0 1 1.643-1.643zM21.55 23.193H3.189a1.645 1.645 0 0 1-1.643-1.643V8.5h21.647v13.05a1.645 1.645 0 0 1-1.643 1.643z" data-name="Trazado 286"/>
</svg>
