<svg width="40" height="40" viewBox="0 0 40 40" fill="none" xmlns="http://www.w3.org/2000/svg">
<path d="M11.6668 18.3334V10C11.6668 5.00002 15.0002 1.66669 20.0002 1.66669C25.0002 1.66669 28.3335 5.00002 28.3335 10V18.3334M20.0002 25V31.6667M20.0002 38.3334C23.0944 38.3334 26.0618 37.1042 28.2497 34.9163C30.4377 32.7283 31.6668 29.7609 31.6668 26.6667C31.6668 23.5725 30.4377 20.605 28.2497 18.4171C26.0618 16.2292 23.0944 15 20.0002 15C16.906 15 13.9385 16.2292 11.7506 18.4171C9.56266 20.605 8.3335 23.5725 8.3335 26.6667C8.3335 29.7609 9.56266 32.7283 11.7506 34.9163C13.9385 37.1042 16.906 38.3334 20.0002 38.3334ZM20.0002 26.6667C20.4422 26.6667 20.8661 26.4911 21.1787 26.1785C21.4912 25.866 21.6668 25.442 21.6668 25C21.6668 24.558 21.4912 24.1341 21.1787 23.8215C20.8661 23.5089 20.4422 23.3334 20.0002 23.3334C19.5581 23.3334 19.1342 23.5089 18.8217 23.8215C18.5091 24.1341 18.3335 24.558 18.3335 25C18.3335 25.442 18.5091 25.866 18.8217 26.1785C19.1342 26.4911 19.5581 26.6667 20.0002 26.6667Z" stroke="#1E1E1E" stroke-width="2"/>
</svg>
