<svg xmlns="http://www.w3.org/2000/svg" width="29.109" height="25.584" viewBox="0 0 29.109 25.584">
    <defs>
        <style>
            .cls-1{fill:#d81159}
        </style>
    </defs>
    <g id="sun-hat">
        <path id="Trazado_202" d="M131.884 31a4.454 4.454 0 0 0-2.016.472 2.486 2.486 0 0 1-2.379-.008 4.407 4.407 0 0 0-2.018-.464A4.474 4.474 0 0 0 121 35.469v2.354h15.351v-2.354A4.474 4.474 0 0 0 131.884 31z" class="cls-1" data-name="Trazado 202" transform="translate(-114.122 -31)"/>
        <path id="Trazado_203" d="M23.493 181H5.617L.25 186.367a.852.852 0 0 0 .17 1.333 11.936 11.936 0 0 0 3.258 1.34 9.34 9.34 0 0 0 8.456 7.243 2.541 2.541 0 0 0 4.842 0 9.339 9.339 0 0 0 8.454-7.235 10.633 10.633 0 0 0 3.276-1.357.852.852 0 0 0 .154-1.328zm-6.556 13.585a2.548 2.548 0 0 0-4.765 0 7.661 7.661 0 0 1-6.7-5.374 3.811 3.811 0 0 0 1.861-.612 3.71 3.71 0 0 1 4.172 0 5.7 5.7 0 0 0 3.091.914 5.45 5.45 0 0 0 3.027-.917 3.8 3.8 0 0 1 4.229 0 3.8 3.8 0 0 0 1.795.58 7.659 7.659 0 0 1-6.71 5.409z" class="cls-1" data-name="Trazado 203" transform="translate(0 -172.472)"/>
    </g>
</svg>
