<svg xmlns="http://www.w3.org/2000/svg" id="instagram" width="17.856" height="17.856" viewBox="0 0 17.856 17.856">
    <defs>
        <style>
            .cls-1{fill:#d81159}
        </style>
    </defs>
    <path id="Trazado_230" d="M10.428 5.838a4.582 4.582 0 1 0 4.582 4.582 4.581 4.581 0 0 0-4.582-4.582zm0 7.555A2.974 2.974 0 1 1 13.4 10.42a2.973 2.973 0 0 1-2.972 2.973z" class="cls-1" transform="translate(-1.496 -1.495)"/>
    <path id="Trazado_231" d="M12.609.057C10.967-.02 6.9-.016 5.253.057A5.336 5.336 0 0 0 1.507 1.5C-.211 3.218.009 5.532.009 8.925c0 3.473-.193 5.733 1.5 7.424 1.724 1.723 4.071 1.5 7.424 1.5 3.44 0 4.628 0 5.844-.469 1.654-.642 2.9-2.12 3.024-4.776.077-1.644.073-5.712 0-7.356-.147-3.134-1.83-5.035-5.19-5.19zm2.6 15.157c-1.126 1.126-2.687 1.025-6.3 1.025-3.72 0-5.212.055-6.3-1.036-1.254-1.248-1.027-3.251-1.027-6.289 0-4.111-.422-7.071 3.7-7.282.952-.032 1.231-.046 3.618-.046l.033.022c3.965 0 7.075-.415 7.262 3.71.042.941.052 1.224.052 3.606-.001 3.676.069 5.176-1.037 6.29z" class="cls-1" transform="translate(0 -.001)"/>
    <circle id="Elipse_798" cx="1.071" cy="1.071" r="1.071" class="cls-1" transform="translate(12.624 3.092)"/>
</svg>
