<svg xmlns="http://www.w3.org/2000/svg" width="17.995" height="18.001" viewBox="0 0 17.995 18.001">
    <defs>
        <style>
            .cls-1{fill:#d81159}
        </style>
    </defs>
    <g id="linkedin_1_" data-name="linkedin (1)" transform="translate(-.03)">
        <path id="Trazado_296" d="M15.92 19.776h3.5a.563.563 0 0 0 .563-.563C19.715 13.32 21.36 7.1 15.224 7.1a4.463 4.463 0 0 0-2.8.935c0-1.1-1.184-.49-3.918-.653a.563.563 0 0 0-.563.563c.227 10.625-.506 11.829.563 11.829H12c1.015 0 .369-1.431.563-6.141 0-1.946.563-2.327 1.535-2.327 1.076 0 1.256.747 1.256 2.421.197 4.627-.445 6.049.566 6.049zm-1.82-9.594c-3.368 0-2.66 3.7-2.66 8.468H9.072V8.509H11.3v.974a.6.6 0 0 0 1.109.263 3.126 3.126 0 0 1 2.813-1.519c2.645 0 3.629 1.3 3.629 4.8v5.628h-2.37c0-5.358.567-8.469-2.381-8.469z" class="cls-1" data-name="Trazado 296" transform="translate(-1.969 -1.775)"/>
        <path id="Trazado_297" d="M.923 7.472C-.143 7.472.587 8.661.36 19.3a.563.563 0 0 0 .563.563h3.5c1.065 0 .336-1.189.563-11.829 0-.971-1.411-.4-4.061-.563zm2.936 11.266H1.485V8.6h2.374z" class="cls-1" data-name="Trazado 297" transform="translate(-.073 -1.862)"/>
        <path id="Trazado_298" d="M2.6 0c-3.435 0-3.414 5.2 0 5.2S6.033 0 2.6 0zm0 4.072a1.474 1.474 0 0 1 0-2.947 1.474 1.474 0 0 1 0 2.947z" class="cls-1" data-name="Trazado 298"/>
    </g>
</svg>
